<svg xmlns="http://www.w3.org/2000/svg" width="960" height="680" viewBox="0 0 960 680"><rect width="960" height="680" fill="#f4f5f7"/><text x="76" y="88" font-family="sans-serif" font-size="26" font-weight="700" fill="#20242a">お知らせ編集</text><g data-screen-element="title"><text x="76" y="130" font-family="sans-serif" font-size="12" font-weight="700" fill="#4b515a">タイトル</text><rect x="76" y="138" width="808" height="42" rx="6" fill="#fff" stroke="#c9cdd3"/><text x="88" y="163" font-family="sans-serif" font-size="13" font-weight="400" fill="#606772">システムメンテナンスのお知らせ</text></g><g data-screen-element="body"><text x="76" y="214" font-family="sans-serif" font-size="12" font-weight="700" fill="#4b515a">本文</text><rect x="76" y="222" width="808" height="128" rx="6" fill="#fff" stroke="#c9cdd3"/><text x="88" y="247" font-family="sans-serif" font-size="13" font-weight="400" fill="#606772">お知らせの本文を入力してください。</text></g><g data-screen-element="channel"><text x="76" y="392" font-family="sans-serif" font-size="12" font-weight="700" fill="#4b515a">配信先</text><rect x="76" y="400" width="230" height="42" rx="6" fill="#fff" stroke="#c9cdd3"/><text x="88" y="425" font-family="sans-serif" font-size="13" font-weight="400" fill="#606772">Web</text></g><g data-screen-element="deliveryTiming"><text x="326" y="392" font-family="sans-serif" font-size="12" font-weight="700" fill="#4b515a">公開タイミング</text><rect x="326" y="400" width="300" height="42" rx="6" fill="#fff" stroke="#c9cdd3"/><text x="338" y="425" font-family="sans-serif" font-size="13" font-weight="400" fill="#606772">● すぐに公開　○ 日時指定</text></g><g data-screen-element="publishAt"><text x="646" y="392" font-family="sans-serif" font-size="12" font-weight="700" fill="#4b515a">公開日時</text><rect x="646" y="400" width="238" height="42" rx="6" fill="#fff" stroke="#c9cdd3"/><text x="658" y="425" font-family="sans-serif" font-size="13" font-weight="400" fill="#606772">2026-08-10</text></g><g data-screen-element="previewButton"><rect x="526" y="530" width="100" height="40" rx="6" fill="#fff" stroke="#8b929c"/><text x="542" y="555" font-family="sans-serif" font-size="13" font-weight="700" fill="#30363d">プレビュー</text></g><g data-screen-element="saveButton"><rect x="646" y="530" width="100" height="40" rx="6" fill="#30363d" stroke="#30363d"/><text x="662" y="555" font-family="sans-serif" font-size="13" font-weight="700" fill="#fff">保存する</text></g><g data-screen-element="cancelButton"><rect x="766" y="530" width="118" height="40" rx="6" fill="#fff" stroke="#8b929c"/><text x="782" y="555" font-family="sans-serif" font-size="13" font-weight="700" fill="#30363d">キャンセル</text></g></svg>
